<?xml version="1.0" encoding="UTF-8" standalone="no"?>
<!DOCTYPE svg PUBLIC "-//W3C//DTD SVG 1.1//EN" "http://www.w3.org/Graphics/SVG/1.1/DTD/svg11.dtd">
<svg width="100%" height="100%" viewBox="0 0 516 83" version="1.1" xmlns="http://www.w3.org/2000/svg" xmlns:xlink="http://www.w3.org/1999/xlink" xml:space="preserve" xmlns:serif="http://www.serif.com/" style="fill-rule:evenodd;clip-rule:evenodd;stroke-linejoin:round;stroke-miterlimit:2;">
    <g id="Artboard1" transform="matrix(1,0,0,2.02187,-42.4925,-523.809)">
        <rect x="42.492" y="259.072" width="515.015" height="40.928" style="fill:none;"/>
        <clipPath id="_clip1">
            <rect x="42.492" y="259.072" width="515.015" height="40.928"/>
        </clipPath>
        <g clip-path="url(#_clip1)">
            <g transform="matrix(1.12893,0,0,0.558361,-22.9869,123.474)">
                <g>
                    <g transform="matrix(1,0,0,1,0,-1.06985)">
                        <g transform="matrix(6.63954,0,0,6.63954,-2492.15,-1135.31)">
                            <path d="M384.151,216.176L384.151,215.18L387.063,211.448L384.221,211.448L384.221,210.223L388.95,210.223L388.95,211.231L386.102,214.917L388.997,214.917L388.997,216.176L384.151,216.176Z" style="fill:rgb(156,220,254);fill-rule:nonzero;"/>
                        </g>
                        <g transform="matrix(6.63954,0,0,6.63954,-2493.63,-1135.31)">
                            <path d="M394.417,216.176L394.381,215.397C394.256,215.53 394.126,215.652 393.989,215.763C393.852,215.875 393.702,215.971 393.538,216.053C393.374,216.135 393.195,216.199 393.002,216.244C392.808,216.289 392.596,216.311 392.366,216.311C392.061,216.311 391.794,216.266 391.563,216.176C391.333,216.087 391.139,215.962 390.983,215.801C390.827,215.641 390.709,215.448 390.629,215.221C390.548,214.995 390.508,214.745 390.508,214.471C390.508,214.19 390.568,213.93 390.687,213.692C390.806,213.454 390.988,213.249 391.232,213.077C391.476,212.905 391.781,212.77 392.146,212.673C392.511,212.575 392.94,212.526 393.432,212.526L394.212,212.526L394.212,212.169C394.212,212.016 394.19,211.879 394.147,211.756C394.104,211.633 394.035,211.528 393.939,211.442C393.843,211.356 393.719,211.29 393.567,211.243C393.415,211.196 393.227,211.173 393.004,211.173C392.653,211.173 392.306,211.213 391.964,211.293C391.623,211.373 391.292,211.485 390.971,211.63L390.971,210.487C391.256,210.374 391.586,210.28 391.959,210.206C392.332,210.132 392.719,210.094 393.122,210.094C393.563,210.094 393.942,210.136 394.258,210.22C394.575,210.304 394.836,210.43 395.041,210.598C395.246,210.766 395.397,210.976 395.495,211.228C395.592,211.48 395.641,211.774 395.641,212.11L395.641,216.176L394.417,216.176ZM394.212,213.546L393.338,213.546C393.096,213.546 392.891,213.569 392.723,213.616C392.555,213.663 392.419,213.727 392.313,213.809C392.208,213.891 392.13,213.986 392.082,214.093C392.033,214.201 392.008,214.315 392.008,214.436C392.008,214.678 392.087,214.863 392.243,214.99C392.399,215.117 392.612,215.18 392.881,215.18C393.081,215.18 393.288,215.108 393.503,214.964C393.717,214.819 393.954,214.612 394.212,214.342L394.212,213.546Z" style="fill:rgb(156,220,254);fill-rule:nonzero;"/>
                        </g>
                        <g transform="matrix(6.63954,0,0,6.63954,-2493.63,-1135.31)">
                            <path d="M402.517,213.094C402.517,213.641 402.44,214.114 402.286,214.512C402.132,214.911 401.917,215.242 401.641,215.506C401.366,215.769 401.041,215.965 400.666,216.092C400.291,216.218 399.883,216.282 399.441,216.282C399.293,216.282 399.144,216.272 398.996,216.253C398.847,216.233 398.713,216.208 398.592,216.176L398.592,218.503L397.162,218.503L397.162,210.223L398.398,210.223L398.433,211.102C398.554,210.95 398.68,210.811 398.811,210.686C398.942,210.561 399.084,210.455 399.236,210.367C399.388,210.279 399.552,210.212 399.728,210.165C399.904,210.118 400.101,210.094 400.32,210.094C400.672,210.094 400.984,210.165 401.258,210.305C401.531,210.446 401.76,210.646 401.946,210.906C402.132,211.166 402.273,211.48 402.371,211.849C402.468,212.218 402.517,212.634 402.517,213.094ZM401.017,213.153C401.017,212.825 400.994,212.546 400.947,212.315C400.9,212.085 400.833,211.895 400.745,211.747C400.657,211.598 400.55,211.49 400.423,211.422C400.296,211.353 400.15,211.319 399.986,211.319C399.744,211.319 399.512,211.417 399.292,211.612C399.071,211.807 398.838,212.073 398.592,212.409L398.592,215.01C398.705,215.053 398.844,215.089 399.01,215.116C399.176,215.143 399.345,215.157 399.517,215.157C399.744,215.157 399.95,215.11 400.135,215.016C400.321,214.923 400.479,214.79 400.61,214.618C400.741,214.446 400.842,214.236 400.912,213.988C400.982,213.74 401.017,213.462 401.017,213.153Z" style="fill:rgb(156,220,254);fill-rule:nonzero;"/>
                        </g>
                        <g transform="matrix(6.63954,0,0,6.63954,-2493.63,-1135.31)">
                            <path d="M404.649,214.014C404.813,214.014 404.965,214.045 405.106,214.105C405.246,214.166 405.368,214.248 405.472,214.351C405.575,214.455 405.657,214.577 405.715,214.717C405.774,214.858 405.803,215.009 405.803,215.169C405.803,215.325 405.774,215.472 405.715,215.611C405.657,215.75 405.575,215.871 405.472,215.974C405.368,216.078 405.246,216.16 405.106,216.22C404.965,216.281 404.813,216.311 404.649,216.311C404.492,216.311 404.346,216.281 404.209,216.22C404.073,216.16 403.953,216.078 403.852,215.974C403.75,215.871 403.67,215.75 403.612,215.611C403.553,215.472 403.524,215.325 403.524,215.169C403.524,215.009 403.553,214.858 403.612,214.717C403.67,214.577 403.75,214.455 403.852,214.351C403.953,214.248 404.073,214.166 404.209,214.105C404.346,214.045 404.492,214.014 404.649,214.014Z" style="fill:white;fill-rule:nonzero;"/>
                        </g>
                        <g transform="matrix(6.63954,0,0,6.63954,-2493.63,-1135.31)">
                            <path d="M409.14,209.719L409.14,216.176L407.663,216.176L407.663,209.719L405.566,209.719L405.566,208.518L411.237,208.518L411.237,209.719L409.14,209.719Z" style="fill:rgb(216,227,110);fill-rule:nonzero;"/>
                        </g>
                        <g transform="matrix(6.63954,0,0,6.63954,-2493.63,-1135.31)">
                            <path d="M415.147,212.538C415.155,212.315 415.144,212.126 415.115,211.969C415.085,211.813 415.038,211.684 414.974,211.583C414.91,211.481 414.83,211.407 414.737,211.36C414.643,211.313 414.535,211.29 414.414,211.29C414.203,211.29 413.986,211.377 413.761,211.55C413.536,211.724 413.289,212.01 413.02,212.409L413.02,216.176L411.555,216.176L411.555,210.223L412.85,210.223L412.903,211.091C413,210.938 413.111,210.801 413.234,210.68C413.357,210.559 413.494,210.455 413.644,210.367C413.794,210.279 413.961,210.212 414.145,210.165C414.328,210.118 414.53,210.094 414.748,210.094C415.049,210.094 415.316,210.146 415.548,210.25C415.781,210.353 415.976,210.507 416.134,210.71C416.292,210.913 416.41,211.168 416.486,211.474C416.562,211.781 416.594,212.135 416.582,212.538L415.147,212.538Z" style="fill:rgb(216,227,110);fill-rule:nonzero;"/>
                        </g>
                        <g transform="matrix(6.63954,0,0,6.63954,-2493.63,-1135.31)">
                            <path d="M421.165,216.176L421.13,215.397C421.005,215.53 420.874,215.652 420.737,215.763C420.6,215.875 420.45,215.971 420.286,216.053C420.122,216.135 419.943,216.199 419.75,216.244C419.556,216.289 419.345,216.311 419.114,216.311C418.809,216.311 418.542,216.266 418.311,216.176C418.081,216.087 417.888,215.962 417.731,215.801C417.575,215.641 417.457,215.448 417.377,215.221C417.297,214.995 417.257,214.745 417.257,214.471C417.257,214.19 417.316,213.93 417.435,213.692C417.555,213.454 417.736,213.249 417.98,213.077C418.224,212.905 418.529,212.77 418.894,212.673C419.26,212.575 419.688,212.526 420.18,212.526L420.96,212.526L420.96,212.169C420.96,212.016 420.938,211.879 420.895,211.756C420.852,211.633 420.783,211.528 420.687,211.442C420.592,211.356 420.468,211.29 420.315,211.243C420.163,211.196 419.975,211.173 419.753,211.173C419.401,211.173 419.055,211.213 418.713,211.293C418.371,211.373 418.04,211.485 417.72,211.63L417.72,210.487C418.005,210.374 418.334,210.28 418.707,210.206C419.08,210.132 419.468,210.094 419.87,210.094C420.311,210.094 420.69,210.136 421.007,210.22C421.323,210.304 421.584,210.43 421.789,210.598C421.994,210.766 422.145,210.976 422.243,211.228C422.341,211.48 422.389,211.774 422.389,212.11L422.389,216.176L421.165,216.176ZM420.96,213.546L420.087,213.546C419.845,213.546 419.639,213.569 419.472,213.616C419.304,213.663 419.167,213.727 419.061,213.809C418.956,213.891 418.879,213.986 418.83,214.093C418.781,214.201 418.757,214.315 418.757,214.436C418.757,214.678 418.835,214.863 418.991,214.99C419.147,215.117 419.36,215.18 419.63,215.18C419.829,215.18 420.036,215.108 420.251,214.964C420.466,214.819 420.702,214.612 420.96,214.342L420.96,213.546Z" style="fill:rgb(216,227,110);fill-rule:nonzero;"/>
                        </g>
                        <g transform="matrix(6.63954,0,0,6.63954,-2494.86,-1135.31)">
                            <path d="M428.607,215.948C428.325,216.061 428.034,216.145 427.733,216.2C427.433,216.255 427.118,216.282 426.79,216.282C426.317,216.282 425.894,216.217 425.519,216.089C425.144,215.96 424.825,215.768 424.564,215.514C424.302,215.26 424.102,214.946 423.963,214.571C423.824,214.196 423.755,213.762 423.755,213.27C423.755,212.794 423.83,212.362 423.981,211.975C424.131,211.589 424.343,211.259 424.616,210.985C424.89,210.712 425.219,210.501 425.604,210.352C425.988,210.204 426.417,210.13 426.89,210.13C427.276,210.13 427.602,210.15 427.865,210.191C428.129,210.232 428.366,210.284 428.577,210.346L428.577,211.735C428.335,211.614 428.072,211.52 427.789,211.454C427.506,211.387 427.237,211.354 426.983,211.354C426.718,211.354 426.48,211.399 426.269,211.489C426.058,211.579 425.88,211.704 425.735,211.864C425.591,212.024 425.481,212.218 425.404,212.447C425.328,212.675 425.29,212.926 425.29,213.2C425.29,213.485 425.331,213.741 425.413,213.967C425.495,214.194 425.611,214.386 425.762,214.545C425.912,214.703 426.093,214.824 426.304,214.908C426.515,214.992 426.749,215.034 427.007,215.034C427.132,215.034 427.264,215.025 427.402,215.008C427.541,214.99 427.68,214.965 427.818,214.931C427.957,214.898 428.094,214.86 428.229,214.817C428.363,214.774 428.489,214.727 428.607,214.676L428.607,215.948Z" style="fill:rgb(216,227,110);fill-rule:nonzero;"/>
                        </g>
                        <g transform="matrix(6.63954,0,0,6.63954,-2494.86,-1135.31)">
                            <path d="M433.473,216.176L431.276,213.2L431.276,216.176L429.846,216.176L429.846,207.897L431.276,207.897L431.276,212.743L433.356,210.223L435.143,210.223L432.729,212.936L435.342,216.176L433.473,216.176Z" style="fill:rgb(216,227,110);fill-rule:nonzero;"/>
                        </g>
                    </g>
                    <g transform="matrix(4.54404,0,0,4.54404,421.783,241.784)">
                        <path d="M4.978,0.855C4.922,0.634 4.721,0.479 4.494,0.479C4.219,0.479 3.994,0.705 3.994,0.979C3.994,1.035 4.003,1.092 4.022,1.145L4.432,2.497C3.513,3.431 2.998,4.69 3,6L13,6C13.002,4.69 12.487,3.431 11.568,2.497L11.978,1.145C11.997,1.092 12.006,1.035 12.006,0.979C12.006,0.705 11.781,0.479 11.506,0.479C11.279,0.479 11.078,0.634 11.022,0.855L10.731,1.811C9.919,1.28 8.97,0.999 8,1C7.03,0.999 6.081,1.281 5.269,1.811L4.979,0.855L4.978,0.855Z" style="fill:rgb(156,220,254);fill-rule:nonzero;"/>
                        <path d="M13,6L13,7L8.5,7L8.5,15.975C11.042,15.72 13,13.555 13,11L13.5,11C13.774,11 14,11.226 14,11.5L14,12C14,12.274 14.226,12.5 14.5,12.5C14.774,12.5 15,12.274 15,12L15,11.5C15,10.677 14.323,10 13.5,10L13,10L13,9L14.5,9C14.774,9 15,8.774 15,8.5C15,8.226 14.774,8 14.5,8L13,8L13,7L13.5,7C14.323,7 15,6.323 15,5.5L15,5C15,4.726 14.774,4.5 14.5,4.5C14.226,4.5 14,4.726 14,5L14,5.5C14,5.774 13.774,6 13.5,6L13,6ZM7.5,15.975L7.5,7L3,7L3,6L2.5,6C2.226,6 2,5.774 2,5.5L2,5C2,4.726 1.774,4.5 1.5,4.5C1.226,4.5 1,4.726 1,5L1,5.5C1,6.323 1.677,7 2.5,7L3,7L3,8L1.5,8C1.226,8 1,8.226 1,8.5C1,8.774 1.226,9 1.5,9L3,9L3,10L2.5,10C1.677,10 1,10.677 1,11.5L1,12C1,12.274 1.226,12.5 1.5,12.5C1.774,12.5 2,12.274 2,12L2,11.5C2,11.226 2.226,11 2.5,11L3,11C3,13.555 4.958,15.72 7.5,15.975Z" style="fill:rgb(156,220,254);fill-rule:nonzero;"/>
                    </g>
                    <g transform="matrix(1,0,0,1,0,-1.87978)">
                        <g>
                            <g transform="matrix(6.48226,0,0,6.48226,-2301.32,-2041.79)">
                                <path d="M419.679,363.93C417.878,362.262 416.978,360.419 416.978,358.399C416.978,357.926 417.026,357.455 417.121,356.984C417.217,356.513 417.371,356.042 417.584,355.569C417.797,355.096 418.078,354.624 418.428,354.151C418.777,353.678 419.202,353.21 419.702,352.745L420.294,353.348C418.778,354.844 418.021,356.503 418.021,358.323C418.021,359.229 418.212,360.1 418.595,360.936C418.978,361.772 419.544,362.561 420.294,363.303L419.679,363.93Z" style="fill:white;fill-rule:nonzero;"/>
                            </g>
                            <g transform="matrix(6.48226,0,0,6.48226,-2251.07,-2041.79)">
                                <path d="M423.956,352.745C425.757,354.413 426.657,356.268 426.657,358.311C426.657,358.733 426.614,359.171 426.528,359.624C426.443,360.077 426.296,360.541 426.089,361.015C425.882,361.49 425.604,361.971 425.254,362.46C424.904,362.948 424.464,363.438 423.933,363.93L423.341,363.327C424.103,362.573 424.671,361.786 425.046,360.965C425.421,360.145 425.609,359.286 425.609,358.387C425.609,356.528 424.853,354.856 423.341,353.372L423.956,352.745Z" style="fill:white;fill-rule:nonzero;"/>
                            </g>
                        </g>
                    </g>
                </g>
            </g>
        </g>
    </g>
</svg>
